<svg xmlns="http://www.w3.org/2000/svg" viewBox="0 0 1231.34 793.24"><title>Ciambotti_Final_Poster</title><g id="Layer_1" data-name="Layer 1"><rect x="6.28" width="1225.06" height="793.06" fill="#1a2938"/></g><g id="Layer_3" data-name="Layer 3"><g id="Layer_4" data-name="Layer 4"><circle cx="660.87" cy="361.22" r="176.62" fill="#5b54a4" opacity="0.8"/><path d="M1224.21,475c-29.49,87.85-112.49,151.14-210.28,151.14-122.47,0-221.76-99.28-221.76-221.76s99.29-221.76,221.76-221.76c97.91,0,181,63.44,210.39,151.46" transform="translate(6.48 1.07)" fill="#5b54a4" opacity="0.8"/><circle cx="301.51" cy="227.51" r="41.98" fill="#5b54a4" opacity="0.8"/><circle cx="841" cy="332.09" r="146.52" fill="#5b54a4" opacity="0.8"/><circle cx="481.49" cy="301.54" r="118.01" fill="#5b54a4" opacity="0.8"/><rect x="991.49" y="212.05" width="58.61" height="209.09" fill="#429cd6" opacity="0.9"/><rect x="811.49" y="212.05" width="58.61" height="383.33" fill="#429cd6" opacity="0.9"/><rect x="631.49" y="212.05" width="58.61" height="115.63" fill="#429cd6" opacity="0.9"/><rect x="451.88" y="212.05" width="58.61" height="115.63" fill="#429cd6" opacity="0.9"/><rect x="273.49" y="212.05" width="58.61" height="85.54" fill="#429cd6" opacity="0.9"/><rect x="1171.98" y="212.05" width="58.61" height="581.19" fill="#429cd6" opacity="0.9"/><circle cx="71.18" cy="218.79" r="29.3" fill="#5b54a4" opacity="0.8"/><rect x="41.88" y="211.62" width="58.61" height="17.42" fill="#429cd6" opacity="0.9"/><circle cx="1200.67" cy="219.25" r="29.3" fill="#5b54a4" opacity="0.8"/><ellipse cx="41.05" cy="320.58" rx="20.79" ry="20.34" fill="none" stroke="#7f3f98" stroke-miterlimit="10" stroke-width="0.66"/><path d="M25.57,318.78V380.9H41.23V318.78Z" transform="translate(6.48 1.07)" fill="none" stroke="#429cd6" stroke-miterlimit="10" stroke-width="1.18"/><text transform="translate(21.04 394.46)" font-size="7" fill="#f8f7f8" font-family="MyriadPro-Regular, Myriad Pro"><tspan letter-spacing="0.01em">t</tspan><tspan x="2.38" y="0" letter-spacing="-0.01em">w</tspan><tspan x="7.46" y="0">eets and p</tspan><tspan x="37.72" y="0" letter-spacing="-0.01em">r</tspan><tspan x="39.94" y="0">o</tspan><tspan x="43.78" y="0" letter-spacing="-0.01em">t</tspan><tspan x="46.06" y="0" letter-spacing="0em">est numbers sh</tspan><tspan x="90.41" y="0" letter-spacing="-0.01em">o</tspan><tspan x="94.2" y="0">wn on the same</tspan><tspan x="0" y="8.4">pe</tspan><tspan x="7.49" y="8.4" letter-spacing="-0.01em">r</tspan><tspan x="9.71" y="8.4" letter-spacing="-0.01em">c</tspan><tspan x="12.8" y="8.4">e</tspan><tspan x="16.31" y="8.4" letter-spacing="0em">n</tspan><tspan x="20.17" y="8.4">tage scale; not </tspan><tspan x="63.66" y="8.4" letter-spacing="-0.01em">r</tspan><tspan x="65.88" y="8.4">el</tspan><tspan x="71.04" y="8.4" letter-spacing="0em">a</tspan><tspan x="74.39" y="8.4">ti</tspan><tspan x="78.34" y="8.4" letter-spacing="-0.01em">v</tspan><tspan x="81.64" y="8.4">ely si</tspan><tspan x="95.99" y="8.4" letter-spacing="-0.01em">z</tspan><tspan x="98.94" y="8.4" xml:space="preserve">ed  </tspan><tspan x="109.36" y="8.4" letter-spacing="-0.01em">b</tspan><tspan x="113.29" y="8.4" letter-spacing="0em">y </tspan><tspan x="118.07" y="8.4" letter-spacing="0em">v</tspan><tspan x="121.41" y="8.4">alu</tspan><tspan x="130.3" y="8.4" letter-spacing="-0.01em">e</tspan><tspan x="133.72" y="8.4" letter-spacing="0em">. </tspan></text><text transform="translate(47.59 303.37)" font-size="10" fill="#e8e6e7" font-family="MyriadPro-Regular, Myriad Pro">pe<tspan x="10.7" y="0" letter-spacing="-0.01em">r</tspan><tspan x="13.87" y="0" letter-spacing="-0.01em">c</tspan><tspan x="18.29" y="0">e</tspan><tspan x="23.3" y="0" letter-spacing="0em">n</tspan><tspan x="28.81" y="0">tage of </tspan><tspan x="0" y="12" letter-spacing="-0.01em">t</tspan><tspan x="3.25" y="12">otal p</tspan><tspan x="27.04" y="12" letter-spacing="-0.01em">r</tspan><tspan x="30.21" y="12">o</tspan><tspan x="35.7" y="12" letter-spacing="-0.01em">t</tspan><tspan x="38.95" y="12" letter-spacing="0em">est numbers </tspan></text><text transform="translate(22.06 352.46)" font-size="10" fill="#f4f4f5" font-family="MyriadPro-Regular, Myriad Pro">pe<tspan x="10.7" y="0" letter-spacing="-0.01em">r</tspan><tspan x="13.87" y="0" letter-spacing="-0.01em">c</tspan><tspan x="18.29" y="0">e</tspan><tspan x="23.3" y="0" letter-spacing="0em">n</tspan><tspan x="28.81" y="0">tage of </tspan><tspan x="60.19" y="0" letter-spacing="-0.01em">t</tspan><tspan x="63.44" y="0" letter-spacing="0em">otal </tspan><tspan x="81.54" y="0" letter-spacing="0.01em">t</tspan><tspan x="84.94" y="0" letter-spacing="-0.01em">w</tspan><tspan x="92.2" y="0" letter-spacing="0em">eets</tspan></text></g></g><g id="Layer_2" data-name="Layer 2"><text transform="translate(22.82 637.4)" font-size="50" fill="#fff" font-family="AndaleMono, Andale Mono" letter-spacing="0.01em">SIX NIGHTS OF PROTEST</text><line x1="6.47" y1="210.64" x2="1224.46" y2="212.83" fill="none" stroke="#ffca5f" stroke-miterlimit="10"/><circle cx="71.04" cy="210.51" r="24.56" fill="#f9f9fa" stroke="#ffca5f" stroke-miterlimit="10"/><path d="M62.19,215.64H55.67v-1.25H58.3v-9.64L55.82,206v-1.44l2.68-1.38h1.24v11.22h2.45Z" transform="translate(6.48 1.07)" fill="#231f20"/><path d="M70.78,208.84a3.74,3.74,0,0,1,2,1.26,3.28,3.28,0,0,1,.7,2.07,3.45,3.45,0,0,1-1.13,2.71,4,4,0,0,1-2.78,1,4.09,4.09,0,0,1-2.85-1,3.46,3.46,0,0,1-1.11-2.68,3.23,3.23,0,0,1,.72-2.08,3.93,3.93,0,0,1,2-1.27,3,3,0,0,1-1.64-1,2.54,2.54,0,0,1-.62-1.68A3,3,0,0,1,67,204a3.35,3.35,0,0,1,2.5-1A3.53,3.53,0,0,1,72,204a2.92,2.92,0,0,1,1,2.17,2.58,2.58,0,0,1-.63,1.67A3.17,3.17,0,0,1,70.78,208.84Zm-1.28.63c-1.6.47-2.41,1.35-2.41,2.65a2.38,2.38,0,0,0,.73,1.81,2.42,2.42,0,0,0,1.72.68,2.35,2.35,0,0,0,1.71-.67,2.39,2.39,0,0,0,.7-1.82,2.67,2.67,0,0,0-.48-1.56A3.45,3.45,0,0,0,69.5,209.47Zm0-1.23a3.86,3.86,0,0,0,1.07-.36,2.63,2.63,0,0,0,.49-.39,1.76,1.76,0,0,0,.37-.56,1.68,1.68,0,0,0,.14-.72,1.83,1.83,0,0,0-.6-1.4,2.12,2.12,0,0,0-1.47-.56,2,2,0,0,0-1.43.57,1.85,1.85,0,0,0-.6,1.39,1.78,1.78,0,0,0,.22.91,2,2,0,0,0,.53.62,2.57,2.57,0,0,0,.74.37A2.32,2.32,0,0,0,69.5,208.24Z" transform="translate(6.48 1.07)" fill="#231f20"/><circle cx="301.49" cy="210.51" r="24.56" fill="#f9f9fa" stroke="#ffca5f" stroke-miterlimit="10"/><path d="M292.81,215.76H286v-1q2.6-2.88,3.37-3.87a10.1,10.1,0,0,0,1.25-2.07,5.13,5.13,0,0,0,.49-2.15,2.12,2.12,0,0,0-.63-1.63,2.45,2.45,0,0,0-1.76-.6,7.47,7.47,0,0,0-2.34.53l-.2-1.24a7.1,7.1,0,0,1,2.77-.56,3.78,3.78,0,0,1,2.68.94,3.22,3.22,0,0,1,1,2.5,5.07,5.07,0,0,1-.52,2.21,10.13,10.13,0,0,1-1.34,2.11c-.54.68-1.6,1.88-3.18,3.62h5.22Z" transform="translate(6.48 1.07)" fill="#231f20"/><path d="M304,215.76h-6.52V214.5h2.62v-9.63l-2.47,1.24v-1.44l2.68-1.38h1.24V214.5H304Z" transform="translate(6.48 1.07)" fill="#231f20"/><circle cx="481.2" cy="210.51" r="24.56" fill="#f9f9fa" stroke="#ffca5f" stroke-miterlimit="10"/><path d="M472.66,215.64h-6.82v-1q2.6-2.9,3.37-3.88a9.84,9.84,0,0,0,1.25-2.07,5.09,5.09,0,0,0,.49-2.15,2.14,2.14,0,0,0-.63-1.63,2.45,2.45,0,0,0-1.76-.6,7.26,7.26,0,0,0-2.34.54l-.2-1.24a6.94,6.94,0,0,1,2.77-.57,3.82,3.82,0,0,1,2.68.94,3.22,3.22,0,0,1,1,2.5,5.07,5.07,0,0,1-.52,2.21,10.13,10.13,0,0,1-1.34,2.11q-.81,1-3.18,3.63h5.22Z" transform="translate(6.48 1.07)" fill="#231f20"/><path d="M481.1,209a3.49,3.49,0,0,1,1.82,1.16,2.86,2.86,0,0,1,.68,1.88,3.5,3.5,0,0,1-1.27,2.75,4.43,4.43,0,0,1-3,1.11,5.38,5.38,0,0,1-2.64-.65L477,214a5.67,5.67,0,0,0,2.42.57,2.83,2.83,0,0,0,1.92-.69,2.29,2.29,0,0,0,.79-1.8,2.14,2.14,0,0,0-.85-1.76,3.54,3.54,0,0,0-2.26-.68h-.38V208.5h.11a3.73,3.73,0,0,0,2.23-.64,2,2,0,0,0,.88-1.72,1.65,1.65,0,0,0-.63-1.37,2.69,2.69,0,0,0-1.74-.5,5.37,5.37,0,0,0-2.15.52l-.19-1.24a5.83,5.83,0,0,1,2.41-.55,4.17,4.17,0,0,1,2.74.88,2.92,2.92,0,0,1-1.16,5.05Z" transform="translate(6.48 1.07)" fill="#231f20"/><circle cx="660.92" cy="210.51" r="24.56" fill="#f9f9fa" stroke="#ffca5f" stroke-miterlimit="10"/><path d="M652.32,215.64H645.5v-1q2.6-2.9,3.37-3.88a9.84,9.84,0,0,0,1.25-2.07,5.09,5.09,0,0,0,.49-2.15,2.14,2.14,0,0,0-.63-1.63,2.45,2.45,0,0,0-1.76-.6,7.26,7.26,0,0,0-2.34.54l-.2-1.24a7,7,0,0,1,2.78-.57,3.81,3.81,0,0,1,2.67.94,3.23,3.23,0,0,1,1,2.5,5.09,5.09,0,0,1-.53,2.21,10.13,10.13,0,0,1-1.34,2.11q-.81,1-3.18,3.63h5.22Z" transform="translate(6.48 1.07)" fill="#231f20"/><path d="M658.41,208.24a4.71,4.71,0,0,1,1.17-.16,3.62,3.62,0,0,1,2.77,1.08,3.75,3.75,0,0,1,1,2.69,3.89,3.89,0,0,1-1.18,2.86,4,4,0,0,1-2.9,1.17,6,6,0,0,1-2.72-.55l.29-1.22a6.23,6.23,0,0,0,2.47.5,2.4,2.4,0,0,0,1.83-.73,2.78,2.78,0,0,0,.7-2,2.59,2.59,0,0,0-.66-1.91,2.26,2.26,0,0,0-1.7-.67,4.11,4.11,0,0,0-1.49.29l-.86-.4v-5.92h5.67v1.26h-4.41Z" transform="translate(6.48 1.07)" fill="#231f20"/><circle cx="840.63" cy="210.51" r="24.56" fill="#f9f9fa" stroke="#ffca5f" stroke-miterlimit="10"/><path d="M831.87,215.76h-6.82v-1q2.6-2.88,3.37-3.87a10.15,10.15,0,0,0,1.26-2.07,5.27,5.27,0,0,0,.48-2.15,2.12,2.12,0,0,0-.63-1.63,2.44,2.44,0,0,0-1.76-.6,7.47,7.47,0,0,0-2.34.53l-.2-1.24a7.12,7.12,0,0,1,2.78-.56,3.75,3.75,0,0,1,2.67.94,3.23,3.23,0,0,1,1,2.5,5.22,5.22,0,0,1-.52,2.21,10.18,10.18,0,0,1-1.35,2.11c-.54.68-1.6,1.88-3.18,3.62h5.22Z" transform="translate(6.48 1.07)" fill="#231f20"/><path d="M843.25,204.39l-4.91,11.37h-1.48l4.84-11.14h-5.81v-1.26h7.36Z" transform="translate(6.48 1.07)" fill="#231f20"/><circle cx="1020.34" cy="210.51" r="24.56" fill="#f9f9fa" stroke="#ffca5f" stroke-miterlimit="10"/><path d="M1011.5,215.66h-6.83v-1c1.73-1.92,2.86-3.22,3.37-3.87a9.72,9.72,0,0,0,1.26-2.07,5.27,5.27,0,0,0,.48-2.15,2.16,2.16,0,0,0-.63-1.64,2.48,2.48,0,0,0-1.76-.59,7.47,7.47,0,0,0-2.34.53l-.2-1.24a7.15,7.15,0,0,1,2.78-.56,3.74,3.74,0,0,1,2.67.94,3.21,3.21,0,0,1,1,2.5,5.22,5.22,0,0,1-.52,2.21,10.85,10.85,0,0,1-1.34,2.11c-.55.68-1.61,1.88-3.19,3.62h5.23Z" transform="translate(6.48 1.07)" fill="#231f20"/><path d="M1021.53,209.7a3.71,3.71,0,0,1-2.53.94,3.6,3.6,0,0,1-2.62-1,3.42,3.42,0,0,1-1-2.59,4.22,4.22,0,0,1,1-2.87,3.29,3.29,0,0,1,2.6-1.17,3.38,3.38,0,0,1,3,1.78,8.46,8.46,0,0,1,1.09,4.51,8.27,8.27,0,0,1-1.27,4.66,3.94,3.94,0,0,1-3.43,1.93,6.48,6.48,0,0,1-2.49-.44l.22-1.27a6.72,6.72,0,0,0,2.24.44,2.64,2.64,0,0,0,2.33-1.41A6.56,6.56,0,0,0,1021.53,209.7Zm0-1.24a6.12,6.12,0,0,0-.68-2.93,2,2,0,0,0-1.77-1.26,2,2,0,0,0-1.59.73,3,3,0,0,0-.59,1.91,2.61,2.61,0,0,0,.6,1.78,2,2,0,0,0,1.58.69,3.58,3.58,0,0,0,2.34-.83Z" transform="translate(6.48 1.07)" fill="#231f20"/><circle cx="1200.06" cy="215.37" r="24.56" fill="#f9f9fa" stroke="#ffca5f" stroke-miterlimit="10"/><path d="M1188.39,207.6a3.35,3.35,0,0,1,3,1.72,9.26,9.26,0,0,1,1.06,4.85,9.49,9.49,0,0,1-1,4.79,3.31,3.31,0,0,1-3.06,1.77,3.36,3.36,0,0,1-3-1.72,9.22,9.22,0,0,1-1.06-4.84,9.5,9.5,0,0,1,1-4.8A3.32,3.32,0,0,1,1188.39,207.6Zm0,11.84a2,2,0,0,0,1.93-1.26,13.11,13.11,0,0,0,0-8,2.09,2.09,0,0,0-3.84,0,9.28,9.28,0,0,0-.64,4,9.51,9.51,0,0,0,.63,4A2,2,0,0,0,1188.39,219.44Zm0-6.62a1.24,1.24,0,0,1,.93.39,1.3,1.3,0,0,1,.39,1,1.41,1.41,0,0,1-.39,1,1.25,1.25,0,0,1-.93.41,1.22,1.22,0,0,1-.92-.41,1.4,1.4,0,0,1-.38-1,1.3,1.3,0,0,1,.37-1A1.24,1.24,0,0,1,1188.36,212.82Z" transform="translate(6.48 1.07)" fill="#231f20"/><path d="M1202.85,220.49h-6.52v-1.28H1199v-9.83l-2.48,1.26v-1.47l2.68-1.4h1.24v11.44h2.45Z" transform="translate(6.48 1.07)" fill="#231f20"/><rect x="189.51" y="124.12" width="157.03" height="48.79" rx="7.3" ry="7.3" fill="none" stroke="#ffca5f" stroke-miterlimit="10" stroke-width="0.93"/><rect x="21.64" y="89" width="146.79" height="76.16" rx="9.96" ry="9.96" fill="none" stroke="#ffca5f" stroke-miterlimit="10" stroke-width="0.94"/><rect x="148.15" y="206.26" width="37.88" height="9.32" fill="#1a2938"/><polyline points="147.7 210.97 154.94 205.16 155.51 214.77 164.62 204.63 167.47 214.24 175.44 206.23 179.42 215.84 186.46 205.34 186.46 211.17" fill="none" stroke="#ffca5f" stroke-miterlimit="10" stroke-width="0.8"/><rect x="371.36" y="91.95" width="126.77" height="63.9" rx="10.62" ry="10.62" fill="none" stroke="#ffca5f" stroke-miterlimit="10" stroke-width="0.96"/><rect x="535.86" y="125.8" width="210.22" height="49.87" rx="9.98" ry="9.98" fill="none" stroke="#ffca5f" stroke-miterlimit="10" stroke-width="0.96"/><rect x="765.79" y="90.38" width="153.54" height="72.99" rx="9.74" ry="9.74" fill="none" stroke="#ffca5f" stroke-miterlimit="10" stroke-width="0.93"/><rect x="939.47" y="61.48" width="152.58" height="74.7" rx="10.26" ry="10.26" fill="none" stroke="#ffca5f" stroke-miterlimit="10" stroke-width="0.86"/><rect x="1106.57" y="136.5" width="104.2" height="44.96" rx="8.66" ry="8.66" fill="none" stroke="#ffca5f" stroke-miterlimit="10" stroke-width="0.84"/><text transform="translate(11.48 770.08)" font-size="9" fill="#595a5a" font-family="MyriadPro-Regular, Myriad Pro"><tspan letter-spacing="-0.01em">b</tspan><tspan x="5.06" y="0">y Isabella </tspan><tspan x="41.38" y="0" letter-spacing="0em">C</tspan><tspan x="46.57" y="0">iambotti, D</tspan><tspan x="88.41" y="0" letter-spacing="0em">a</tspan><tspan x="92.72" y="0">ta</tspan><tspan x="100.03" y="0" letter-spacing="-0.04em"> </tspan><tspan x="101.62" y="0" letter-spacing="-0.02em">V</tspan><tspan x="106.5" y="0" letter-spacing="0em">isualiz</tspan><tspan x="129.54" y="0" letter-spacing="0em">a</tspan><tspan x="133.85" y="0" letter-spacing="0em">tion </tspan><tspan x="150.77" y="0" letter-spacing="-0.03em">F</tspan><tspan x="154.92" y="0">inal </tspan><tspan x="170.39" y="0" letter-spacing="-0.02em">P</tspan><tspan x="175.04" y="0" letter-spacing="-0.01em">r</tspan><tspan x="177.89" y="0" letter-spacing="0em">oje</tspan><tspan x="189.53" y="0" letter-spacing="0.01em">c</tspan><tspan x="193.68" y="0" letter-spacing="0em">t</tspan><tspan x="196.63" y="0">. </tspan><tspan x="200.4" y="0" letter-spacing="-0.01em">E</tspan><tspan x="204.76" y="0" letter-spacing="-0.01em">v</tspan><tspan x="209" y="0">e</tspan><tspan x="213.51" y="0" letter-spacing="0em">n</tspan><tspan x="218.47" y="0" letter-spacing="0em">t desc</tspan><tspan x="240.54" y="0" letter-spacing="0em">r</tspan><tspan x="243.52" y="0">iptions sou</tspan><tspan x="284.7" y="0" letter-spacing="-0.01em">r</tspan><tspan x="287.55" y="0" letter-spacing="-0.01em">c</tspan><tspan x="291.53" y="0">ed f</tspan><tspan x="305.65" y="0" letter-spacing="-0.01em">r</tspan><tspan x="308.51" y="0" letter-spacing="0em">om</tspan><tspan x="320.95" y="0" letter-spacing="-0.04em"> </tspan><tspan x="322.49" y="0" letter-spacing="-0.01em">T</tspan><tspan x="326.9" y="0">he Baltimo</tspan><tspan x="367.19" y="0" letter-spacing="-0.01em">r</tspan><tspan x="370.04" y="0">e Sun. </tspan><tspan x="394.62" y="0" letter-spacing="0em">A</tspan><tspan x="400.1" y="0">ll</tspan><tspan x="404.35" y="0" letter-spacing="-0.04em"> </tspan><tspan x="405.89" y="0" letter-spacing="-0.04em">T</tspan><tspan x="410" y="0">wit</tspan><tspan x="421.71" y="0" letter-spacing="-0.01em">t</tspan><tspan x="424.63" y="0">er d</tspan><tspan x="439.07" y="0" letter-spacing="0em">a</tspan><tspan x="443.37" y="0">ta publicly </tspan><tspan x="484.33" y="0" letter-spacing="-0.01em">r</tspan><tspan x="487.18" y="0" letter-spacing="0em">eleased f</tspan><tspan x="520.35" y="0" letter-spacing="-0.01em">r</tspan><tspan x="523.2" y="0">om the 2016 </tspan><tspan x="572.32" y="0" letter-spacing="-0.01em">C</tspan><tspan x="577.44" y="0">e</tspan><tspan x="581.95" y="0" letter-spacing="0em">n</tspan><tspan x="586.91" y="0" letter-spacing="-0.01em">t</tspan><tspan x="589.83" y="0">er </tspan><tspan x="599.19" y="0" letter-spacing="-0.01em">f</tspan><tspan x="601.7" y="0" letter-spacing="0em">or </tspan><tspan x="611.5" y="0" letter-spacing="0.01em">M</tspan><tspan x="618.79" y="0">edia and </tspan><tspan x="653.04" y="0" letter-spacing="0.01em">S</tspan><tspan x="657.53" y="0" letter-spacing="0em">ocial </tspan><tspan x="676.98" y="0" letter-spacing="0.01em">I</tspan><tspan x="679.22" y="0">mpa</tspan><tspan x="696.18" y="0" letter-spacing="0.01em">c</tspan><tspan x="700.33" y="0" letter-spacing="0em">t </tspan><tspan x="705.22" y="0" letter-spacing="0em">R</tspan><tspan x="710.1" y="0" letter-spacing="0em">epo</tspan><tspan x="724.67" y="0" letter-spacing="0.02em">r</tspan><tspan x="727.83" y="0" letter-spacing="0em">t</tspan><tspan x="730.78" y="0" xml:space="preserve">,  </tspan><tspan font-family="AvenirNext-Italic, Avenir Next"><tspan x="0" y="15" font-style="italic">Beyond the hashtags: #</tspan><tspan x="95.08" y="15" font-style="italic" letter-spacing="-0.05em">F</tspan><tspan x="99.59" y="15" font-style="italic">e</tspan><tspan x="104.69" y="15" font-style="italic" letter-spacing="-0.01em">r</tspan><tspan x="107.71" y="15" font-style="italic">guson</tspan><tspan x="133.1" y="15" font-style="italic" letter-spacing="-0.03em">,</tspan><tspan x="135.17" y="15" xml:space="preserve" font-style="italic"> #Blacklivesm</tspan><tspan x="189.74" y="15" font-style="italic" letter-spacing="-0.01em">a</tspan><tspan x="194.45" y="15" font-style="italic" letter-spacing="-0.02em">t</tspan><tspan x="197.05" y="15" font-style="italic" letter-spacing="0em">te</tspan><tspan x="204.91" y="15" font-style="italic" letter-spacing="-0.04em">r</tspan><tspan x="207.72" y="15" font-style="italic" letter-spacing="-0.03em">,</tspan><tspan x="209.79" y="15" xml:space="preserve" font-style="italic"> and the online struggle for o</tspan><tspan x="327.54" y="15" font-style="italic" letter-spacing="-0.02em">f</tspan><tspan x="330.04" y="15" font-style="italic">fline justice</tspan><tspan x="375.77" y="15" font-style="italic" letter-spacing="-0.03em">.</tspan><tspan x="377.84" y="15" font-style="italic"> </tspan><tspan x="380.09" y="15" font-family="MyriadPro-Regular, Myriad Pro" letter-spacing="-0.01em">A</tspan><tspan x="385.49" y="15" font-family="MyriadPro-Regular, Myriad Pro">utho</tspan><tspan x="403.37" y="15" font-family="MyriadPro-Regular, Myriad Pro" letter-spacing="-0.01em">r</tspan><tspan x="406.22" y="15" font-family="MyriadPro-Regular, Myriad Pro">ed </tspan><tspan x="417.71" y="15" font-family="MyriadPro-Regular, Myriad Pro" letter-spacing="-0.01em">b</tspan><tspan x="422.77" y="15" font-family="MyriadPro-Regular, Myriad Pro" letter-spacing="0em">y Dan </tspan><tspan x="446.15" y="15" font-family="MyriadPro-Regular, Myriad Pro" letter-spacing="-0.03em">F</tspan><tspan x="450.3" y="15" font-family="MyriadPro-Regular, Myriad Pro" letter-spacing="-0.01em">r</tspan><tspan x="453.15" y="15" font-family="MyriadPro-Regular, Myriad Pro" letter-spacing="0em">eelon, Cha</tspan><tspan x="492.56" y="15" font-family="MyriadPro-Regular, Myriad Pro" letter-spacing="0em">r</tspan><tspan x="495.54" y="15" font-family="MyriadPro-Regular, Myriad Pro">l</tspan><tspan x="497.66" y="15" font-family="MyriadPro-Regular, Myriad Pro" letter-spacing="-0.01em">t</tspan><tspan x="500.58" y="15" font-family="MyriadPro-Regular, Myriad Pro" letter-spacing="0em">on </tspan><tspan x="512.43" y="15" font-family="MyriadPro-Regular, Myriad Pro" letter-spacing="-0.03em">D</tspan><tspan x="518.12" y="15" font-family="MyriadPro-Regular, Myriad Pro">. </tspan><tspan x="521.89" y="15" font-family="MyriadPro-Regular, Myriad Pro" letter-spacing="0.01em">M</tspan><tspan x="529.18" y="15" font-family="MyriadPro-Regular, Myriad Pro">c</tspan><tspan x="533.21" y="15" font-family="MyriadPro-Regular, Myriad Pro" letter-spacing="0.01em">I</tspan><tspan x="535.45" y="15" font-family="MyriadPro-Regular, Myriad Pro" letter-spacing="0em">l</tspan><tspan x="537.57" y="15" font-family="MyriadPro-Regular, Myriad Pro" letter-spacing="0em">w</tspan><tspan x="544.16" y="15" font-family="MyriadPro-Regular, Myriad Pro" letter-spacing="0em">ain, and </tspan><tspan x="575.69" y="15" font-family="MyriadPro-Regular, Myriad Pro" letter-spacing="0.01em">M</tspan><tspan x="582.98" y="15" font-family="MyriadPro-Regular, Myriad Pro">e</tspan><tspan x="587.49" y="15" font-family="MyriadPro-Regular, Myriad Pro" letter-spacing="-0.01em">r</tspan><tspan x="590.34" y="15" font-family="MyriadPro-Regular, Myriad Pro">edith </tspan><tspan x="611.91" y="15" font-family="MyriadPro-Regular, Myriad Pro" letter-spacing="-0.03em">D</tspan><tspan x="617.6" y="15" font-family="MyriadPro-Regular, Myriad Pro" letter-spacing="0em">. Cla</tspan><tspan x="633.05" y="15" font-family="MyriadPro-Regular, Myriad Pro" letter-spacing="0em">r</tspan><tspan x="636.03" y="15" font-family="MyriadPro-Regular, Myriad Pro" letter-spacing="0.01em">k</tspan><tspan x="640.38" y="15" font-family="MyriadPro-Regular, Myriad Pro">.</tspan><tspan x="642.24" y="15" font-family="MyriadPro-Regular, Myriad Pro" letter-spacing="-0.04em"> </tspan><tspan x="643.78" y="15" font-family="MyriadPro-Regular, Myriad Pro" letter-spacing="-0.01em">T</tspan><tspan x="648.19" y="15" font-family="MyriadPro-Regular, Myriad Pro">he d</tspan><tspan x="664.68" y="15" font-family="MyriadPro-Regular, Myriad Pro" letter-spacing="0em">a</tspan><tspan x="668.98" y="15" xml:space="preserve" font-family="MyriadPro-Regular, Myriad Pro">ta and  </tspan><tspan x="696.43" y="15" font-family="MyriadPro-Regular, Myriad Pro" letter-spacing="-0.01em">r</tspan><tspan x="699.28" y="15" font-family="MyriadPro-Regular, Myriad Pro">epo</tspan><tspan x="713.85" y="15" font-family="MyriadPro-Regular, Myriad Pro" letter-spacing="0.02em">r</tspan><tspan x="717.01" y="15" font-family="MyriadPro-Regular, Myriad Pro" letter-spacing="0em">t a</tspan><tspan x="726.24" y="15" font-family="MyriadPro-Regular, Myriad Pro" letter-spacing="-0.01em">r</tspan><tspan x="729.09" y="15" font-family="MyriadPro-Regular, Myriad Pro">e </tspan><tspan x="735.51" y="15" font-family="MyriadPro-Regular, Myriad Pro" letter-spacing="-0.01em">a</tspan><tspan x="739.77" y="15" font-family="MyriadPro-Regular, Myriad Pro" letter-spacing="0em">v</tspan><tspan x="744.06" y="15" font-family="MyriadPro-Regular, Myriad Pro">ailable f</tspan><tspan x="773.26" y="15" font-family="MyriadPro-Regular, Myriad Pro" letter-spacing="-0.01em">r</tspan><tspan x="776.11" y="15" font-family="MyriadPro-Regular, Myriad Pro">eely onlin</tspan><tspan x="812.56" y="15" font-family="MyriadPro-Regular, Myriad Pro" letter-spacing="-0.01em">e</tspan><tspan x="816.96" y="15" xml:space="preserve" font-family="MyriadPro-Regular, Myriad Pro">.  |   Uni</tspan><tspan x="843.44" y="15" font-family="MyriadPro-Regular, Myriad Pro" letter-spacing="-0.01em">v</tspan><tspan x="847.68" y="15" font-family="MyriadPro-Regular, Myriad Pro">ersi</tspan><tspan x="860.8" y="15" font-family="MyriadPro-Regular, Myriad Pro" letter-spacing="0.01em">t</tspan><tspan x="863.86" y="15" font-family="MyriadPro-Regular, Myriad Pro" letter-spacing="0em">y of</tspan><tspan x="877.58" y="15" font-family="MyriadPro-Regular, Myriad Pro" letter-spacing="-0.04em"> </tspan><tspan x="879.16" y="15" font-family="MyriadPro-Regular, Myriad Pro" letter-spacing="-0.02em">V</tspan><tspan x="884.04" y="15" font-family="MyriadPro-Regular, Myriad Pro">i</tspan><tspan x="886.14" y="15" font-family="MyriadPro-Regular, Myriad Pro" letter-spacing="-0.01em">r</tspan><tspan x="889.02" y="15" font-family="MyriadPro-Regular, Myriad Pro" letter-spacing="-0.01em">g</tspan><tspan x="893.99" y="15" font-family="MyriadPro-Regular, Myriad Pro" letter-spacing="0em">inia, </tspan><tspan x="911.31" y="15" font-family="MyriadPro-Regular, Myriad Pro" letter-spacing="0.01em">M</tspan><tspan x="918.6" y="15" font-family="MyriadPro-Regular, Myriad Pro" letter-spacing="-0.01em">a</tspan><tspan x="922.86" y="15" font-family="MyriadPro-Regular, Myriad Pro" letter-spacing="0em">y 2017</tspan></tspan></text><text transform="translate(193.59 138.81)" font-size="11" fill="#fffcdd" font-family="PTSans-Narrow, PT Sans Narrow"><tspan letter-spacing="-0.03em">A</tspan><tspan x="4.84" y="0" xml:space="preserve"> march shuts d</tspan><tspan x="60" y="0" letter-spacing="-0.01em">o</tspan><tspan x="64.66" y="0">wn main roads </tspan><tspan x="122.39" y="0" letter-spacing="-0.01em">t</tspan><tspan x="125.33" y="0">o the </tspan><tspan x="0" y="13.2">Inner Harbo</tspan><tspan x="44.95" y="13.2" letter-spacing="-0.05em">r</tspan><tspan x="47.39" y="13.2" letter-spacing="-0.07em">.</tspan><tspan x="48.37" y="13.2" letter-spacing="-0.03em"> </tspan><tspan x="50.41" y="13.2">This is the </tspan><tspan x="91.78" y="13.2" letter-spacing="-0.01em">f</tspan><tspan x="94.52" y="13.2">ou</tspan><tspan x="104.05" y="13.2" letter-spacing="0.02em">r</tspan><tspan x="107.32" y="13.2">th straight </tspan><tspan x="0" y="26.4">night </tspan><tspan x="22.16" y="26.4" letter-spacing="-0.01em">o</tspan><tspan x="26.81" y="26.4">f demonstrations</tspan><tspan x="90.88" y="26.4" letter-spacing="-0.07em">.</tspan></text><text transform="translate(378.34 106.27)" font-size="11" fill="#fffcdd" font-family="PTSans-Narrow, PT Sans Narrow"><tspan letter-spacing="-0.03em">P</tspan><tspan x="4.66" y="0">ro</tspan><tspan x="12.43" y="0" letter-spacing="-0.01em">t</tspan><tspan x="15.37" y="0">ests in</tspan><tspan x="39.92" y="0" letter-spacing="-0.01em">t</tspan><tspan x="42.85" y="0">ensif</tspan><tspan x="61.16" y="0" letter-spacing="-0.06em">y</tspan><tspan x="64.66" y="0" letter-spacing="-0.07em">,</tspan><tspan x="65.71" y="0" xml:space="preserve"> but remain </tspan><tspan x="0" y="13.2">largel</tspan><tspan x="21.83" y="13.2" letter-spacing="-0.03em">y</tspan><tspan x="25.65" y="13.2" xml:space="preserve"> nonviolent</tspan><tspan x="68.76" y="13.2" letter-spacing="-0.07em">.</tspan><tspan x="69.74" y="13.2" letter-spacing="-0.03em"> </tspan><tspan x="71.79" y="13.2">The </tspan><tspan x="0" y="26.4">G</tspan><tspan x="5.41" y="26.4" letter-spacing="-0.01em">o</tspan><tspan x="10.05" y="26.4">vernor </tspan><tspan x="36.81" y="26.4" letter-spacing="-0.01em">o</tspan><tspan x="41.45" y="26.4">f Maryland sends in </tspan><tspan x="0" y="39.6">sta</tspan><tspan x="11.14" y="39.6" letter-spacing="-0.01em">t</tspan><tspan x="14.08" y="39.6">e troopers</tspan><tspan x="52.56" y="39.6" letter-spacing="-0.07em">.</tspan></text><text transform="translate(542.48 140.75)" font-size="11" fill="#fffcdd" font-family="PTSans-Narrow, PT Sans Narrow">The sixth straight da<tspan x="78.12" y="0" letter-spacing="-0.03em">y</tspan><tspan x="81.94" y="0"> </tspan><tspan x="84.27" y="0" letter-spacing="-0.01em">o</tspan><tspan x="88.91" y="0">f pro</tspan><tspan x="106.62" y="0" letter-spacing="-0.01em">t</tspan><tspan x="109.56" y="0">ests is the largest one </tspan><tspan x="0" y="13.2">yet</tspan><tspan x="11.7" y="13.2" letter-spacing="-0.07em">.</tspan><tspan x="12.68" y="13.2" xml:space="preserve"> Evening s</tspan><tspan x="51.39" y="13.2" letter-spacing="-0.01em">e</tspan><tspan x="55.85" y="13.2">es a turn </tspan><tspan x="91.15" y="13.2" letter-spacing="-0.01em">t</tspan><tspan x="94.08" y="13.2" letter-spacing="-0.01em">o</tspan><tspan x="98.74" y="13.2">wards</tspan><tspan x="121.12" y="13.2" letter-spacing="0em"> </tspan><tspan x="123.4" y="13.2">violen</tspan><tspan x="146.74" y="13.2" letter-spacing="-0.02em">c</tspan><tspan x="150.47" y="13.2">e; burning </tspan><tspan x="0" y="26.4">and looting b</tspan><tspan x="50.49" y="26.4" letter-spacing="-0.01em">e</tspan><tspan x="54.94" y="26.4">gin</tspan><tspan x="66.91" y="26.4" letter-spacing="-0.07em">.</tspan></text><text transform="translate(774.63 104.73)" font-size="11" fill="#fffcdd" font-family="PTSans-Narrow, PT Sans Narrow"><tspan letter-spacing="-0.03em">P</tspan><tspan x="4.64" y="0">ea</tspan><tspan x="13.58" y="0" letter-spacing="-0.02em">c</tspan><tspan x="17.31" y="0">eful pro</tspan><tspan x="46.9" y="0" letter-spacing="-0.01em">t</tspan><tspan x="49.84" y="0">ests during the da</tspan><tspan x="117.93" y="0" letter-spacing="-0.03em">y</tspan><tspan x="121.75" y="0"> </tspan><tspan x="0" y="13.2" letter-spacing="-0.02em">c</tspan><tspan x="3.73" y="13.2">ontinue </tspan><tspan x="35.2" y="13.2" letter-spacing="-0.01em">t</tspan><tspan x="38.14" y="13.2">o be </tspan><tspan x="56.87" y="13.2" letter-spacing="-0.01em">e</tspan><tspan x="61.32" y="13.2">clipsed </tspan><tspan x="90.33" y="13.2" letter-spacing="-0.01em">b</tspan><tspan x="94.99" y="13.2" letter-spacing="-0.03em">y</tspan><tspan x="98.81" y="13.2" xml:space="preserve"> nighttime </tspan><tspan x="0" y="26.4">riots</tspan><tspan x="16.9" y="26.4" letter-spacing="-0.07em">.</tspan><tspan x="17.88" y="26.4" letter-spacing="-0.03em"> </tspan><tspan x="19.92" y="26.4">The Mayor institu</tspan><tspan x="86.34" y="26.4" letter-spacing="-0.01em">t</tspan><tspan x="89.28" y="26.4">es a </tspan><tspan x="0" y="39.6" letter-spacing="-0.01em">w</tspan><tspan x="6.39" y="39.6" letter-spacing="-0.01em">e</tspan><tspan x="10.85" y="39.6">eklong ci</tspan><tspan x="45.19" y="39.6" letter-spacing="-0.01em">t</tspan><tspan x="48.15" y="39.6" letter-spacing="-0.03em">y</tspan><tspan x="51.96" y="39.6" xml:space="preserve"> cur</tspan><tspan x="66" y="39.6" letter-spacing="-0.01em">fe</tspan><tspan x="73.19" y="39.6" letter-spacing="-0.02em">w</tspan><tspan x="79.47" y="39.6" xml:space="preserve"> from 10 </tspan><tspan x="114.12" y="39.6" letter-spacing="0em">p</tspan><tspan x="118.88" y="39.6">.m</tspan><tspan x="127.74" y="39.6" letter-spacing="-0.07em">.</tspan><tspan x="128.72" y="39.6"> </tspan><tspan x="131.05" y="39.6" letter-spacing="-0.01em">t</tspan><tspan x="133.99" y="39.6">o </tspan><tspan x="0" y="52.8">5 a.m</tspan><tspan x="20.55" y="52.8" letter-spacing="-0.07em">.</tspan></text><text transform="translate(947.78 74.89)" font-size="11" fill="#fffcdd" font-family="PTSans-Narrow, PT Sans Narrow">Students across Baltimore stage <tspan x="-0.01" y="13.2">mass pea</tspan><tspan x="35.04" y="13.2" letter-spacing="-0.02em">c</tspan><tspan x="38.77" y="13.2">eful pro</tspan><tspan x="68.36" y="13.2" letter-spacing="-0.01em">t</tspan><tspan x="71.3" y="13.2">ests</tspan><tspan x="86.3" y="13.2" letter-spacing="-0.07em">,</tspan><tspan x="87.36" y="13.2"> </tspan><tspan x="89.69" y="13.2" letter-spacing="-0.01em">f</tspan><tspan x="92.43" y="13.2">oll</tspan><tspan x="102.31" y="13.2" letter-spacing="-0.01em">ow</tspan><tspan x="113.35" y="13.2">ed </tspan><tspan x="124.99" y="13.2" letter-spacing="-0.01em">b</tspan><tspan x="129.65" y="13.2" letter-spacing="-0.03em">y</tspan><tspan x="133.47" y="13.2"> </tspan><tspan x="-0.02" y="26.4">demonstrations in cities throughout </tspan><tspan x="-0.04" y="39.6">the US</tspan><tspan x="25.14" y="39.6" letter-spacing="-0.07em">,</tspan><tspan x="26.2" y="39.6" xml:space="preserve"> including DC</tspan><tspan x="76.88" y="39.6" letter-spacing="-0.07em">,</tspan><tspan x="77.93" y="39.6" xml:space="preserve"> Manhattan</tspan><tspan x="121.02" y="39.6" letter-spacing="-0.07em">,</tspan><tspan x="122.08" y="39.6"> </tspan><tspan x="-0.05" y="52.8">Minneapolis</tspan><tspan x="46.15" y="52.8" letter-spacing="-0.07em">,</tspan><tspan x="47.21" y="52.8" xml:space="preserve"> and Bos</tspan><tspan x="79.51" y="52.8" letter-spacing="-0.01em">t</tspan><tspan x="82.45" y="52.8">on</tspan><tspan x="92.03" y="52.8" letter-spacing="-0.07em">.</tspan></text><text transform="translate(1113.45 148.44)" font-size="11" fill="#fffcdd" font-family="PTSans-Narrow, PT Sans Narrow">The si<tspan x="22.74" y="0" letter-spacing="-0.02em">x</tspan><tspan x="27" y="0" xml:space="preserve"> arresting poli</tspan><tspan x="79.84" y="0" letter-spacing="-0.02em">c</tspan><tspan x="83.57" y="0">e </tspan><tspan x="0" y="13.2" letter-spacing="-0.01em">o</tspan><tspan x="4.64" y="13.2">ffi</tspan><tspan x="12.28" y="13.2" letter-spacing="-0.02em">c</tspan><tspan x="16" y="13.2">ers are charged in </tspan><tspan x="0" y="26.4">Freddie Gray</tspan><tspan x="47.85" y="26.4" letter-spacing="-0.05em">&apos;</tspan><tspan x="49.27" y="26.4">s death</tspan><tspan x="76.89" y="26.4" letter-spacing="-0.07em">.</tspan></text><text transform="translate(27.42 106.21)" font-size="11" fill="#fffcdd" font-family="PTSans-Narrow, PT Sans Narrow">Gra<tspan x="12.83" y="0" letter-spacing="-0.03em">y</tspan><tspan x="16.64" y="0" xml:space="preserve"> dies in the hospital a</tspan><tspan x="98.21" y="0" letter-spacing="-0.01em">f</tspan><tspan x="100.9" y="0" letter-spacing="-0.01em">t</tspan><tspan x="103.84" y="0">er </tspan><tspan x="0" y="13.2">en</tspan><tspan x="9.37" y="13.2" letter-spacing="-0.01em">t</tspan><tspan x="12.31" y="13.2">ering a </tspan><tspan x="40.9" y="13.2" letter-spacing="-0.02em">c</tspan><tspan x="44.63" y="13.2">oma during his arrest si</tspan><tspan x="133.55" y="13.2" letter-spacing="-0.02em">x</tspan><tspan x="137.82" y="13.2"> </tspan><tspan x="0" y="26.4">days prio</tspan><tspan x="34.29" y="26.4" letter-spacing="-0.05em">r</tspan><tspan x="36.73" y="26.4" letter-spacing="-0.07em">.</tspan><tspan x="37.71" y="26.4" xml:space="preserve">  </tspan><tspan x="42.37" y="26.4" letter-spacing="-0.03em">P</tspan><tspan x="47.04" y="26.4">ro</tspan><tspan x="54.8" y="26.4" letter-spacing="-0.01em">t</tspan><tspan x="57.74" y="26.4">ests b</tspan><tspan x="79.85" y="26.4" letter-spacing="-0.01em">e</tspan><tspan x="84.3" y="26.4">gin in earnest </tspan><tspan x="0" y="39.6">outside the</tspan><tspan x="42.7" y="39.6" letter-spacing="-0.02em"> </tspan><tspan x="44.86" y="39.6" letter-spacing="-0.04em">W</tspan><tspan x="51.85" y="39.6">es</tspan><tspan x="60.11" y="39.6" letter-spacing="-0.01em">t</tspan><tspan x="63.05" y="39.6">ern District poli</tspan><tspan x="121.83" y="39.6" letter-spacing="-0.02em">c</tspan><tspan x="125.56" y="39.6">e </tspan><tspan x="0" y="52.8">station</tspan><tspan x="26.14" y="52.8" letter-spacing="-0.07em">.</tspan></text><text transform="translate(0 694.84)" font-size="16" fill="#fff" font-family="AndaleMono, Andale Mono" letter-spacing="1.65em">	<tspan x="36" y="0" letter-spacing="0em">twitter activity after the death of Freddie Gray in Baltimore | April 18- May 01</tspan></text><polyline points="52.42 193.71 35.02 193.29 35.02 165.16" fill="none" stroke="#ffca5f" stroke-miterlimit="10"/><polyline points="333.91 172.91 333.91 182.86 297.16 182.86 297.16 185.66" fill="none" stroke="#ffca5f" stroke-miterlimit="10"/><polyline points="715.87 172.06 715.87 197.08 681.26 197.08" fill="none" stroke="#ffca5f" stroke-miterlimit="10"/><polyline points="419.87 155.68 419.87 175.83 501.7 175.83 501.7 197.8" fill="none" stroke="#ffca5f" stroke-miterlimit="10" stroke-width="0.98"/><line x1="837.98" y1="163.83" x2="837.98" y2="185.57" fill="none" stroke="#ffca5f" stroke-miterlimit="10"/><polyline points="1144.85 181.65 1144.85 197.08 1183.21 197.08" fill="none" stroke="#ffca5f" stroke-miterlimit="10"/><polyline points="1063.27 136.76 1063.27 178.81 1009.13 178.81 1009.13 189.03" fill="none" stroke="#ffca5f" stroke-miterlimit="10" stroke-width="0.86"/></g></svg>